<?xml version="1.0" encoding="utf-8"?>
<!-- Generator: Adobe Illustrator 21.1.0, SVG Export Plug-In . SVG Version: 6.00 Build 0)  -->
<svg version="1.1"
	 id="svg14469" inkscape:version="0.91 r13725" sodipodi:docname="Formula_One_2018_logo.svg" xmlns:cc="http://creativecommons.org/ns#" xmlns:dc="http://purl.org/dc/elements/1.1/" xmlns:inkscape="http://www.inkscape.org/namespaces/inkscape" xmlns:rdf="http://www.w3.org/1999/02/22-rdf-syntax-ns#" xmlns:sodipodi="http://sodipodi.sourceforge.net/DTD/sodipodi-0.dtd" xmlns:svg="http://www.w3.org/2000/svg"
	 xmlns="http://www.w3.org/2000/svg" xmlns:xlink="http://www.w3.org/1999/xlink" x="0px" y="0px" viewBox="-34.5 -32.637 1060 511"
	 enable-background="new -34.5 -32.637 1060 511" xml:space="preserve">
<sodipodi:namedview  bordercolor="#666666" borderopacity="1.0" id="base" inkscape:current-layer="layer1" inkscape:cx="660.67065" inkscape:cy="260.27067" inkscape:document-units="px" inkscape:pageopacity="0.0" inkscape:pageshadow="2" inkscape:window-height="705" inkscape:window-maximized="1" inkscape:window-width="1366" inkscape:window-x="-8" inkscape:window-y="-8" inkscape:zoom="0.53171115" pagecolor="#ffffff" showgrid="false" units="px">
	</sodipodi:namedview>
<g id="layer1" transform="translate(0,-614.63716)" inkscape:groupmode="layer" inkscape:label="Layer 1">
	<g id="g3193" transform="matrix(0.2102884,0,0,0.2102884,242.96175,223.17144)">
		<path id="path3195" inkscape:connector-curvature="0" sodipodi:nodetypes="ccccccccc" fill="#FF1E00" d="M-1153.587,3049.966
			l866.831-859.842c246.495-241.326,400.613-328.553,880.814-328.553h2167.08l-450.893,443.899H698.918
			c-377.983,0-469.19,51.91-643.133,220.206l-538.278,524.291H-1153.587z"/>
		<path id="path3197" inkscape:connector-curvature="0" sodipodi:nodetypes="ccccccccc" fill="#FF1E00" d="M-360.158,3049.966
			l488.55-489.34c128.266-126.417,214.355-181.754,518.662-181.754H2240.34l-415.942,415.241H698.918
			c-171.198,0-225.124,45.538-265.642,85.017l-171.273,170.836H-360.158z"/>
		<path id="path3199" inkscape:connector-curvature="0" sodipodi:nodetypes="ccccc" fill="#FF1E00" d="M1668.51,3049.966
			l1185.6-1188.395h745.898l-1188.4,1188.395H1668.51z"/>
		<g id="g3201" transform="matrix(5.1530416,0,0,5.1530416,12.735609,-195.67997)">
			<path id="path3203" inkscape:connector-curvature="0" sodipodi:nodetypes="ccccccccc" fill="#FF1E00" d="M533.542,629.924
				v-24.492h-8.839v-4.141h22.695v4.141h-9.026v24.492H533.542z"/>
			<path id="path3205" inkscape:connector-curvature="0" sodipodi:nodetypes="cccccccccccccccc" fill="#FF1E00" d="M551.044,629.924
				v-28.633h7.331l6.358,17.385c0.624,1.888,1.081,3.3,1.367,4.238c0.325-1.042,0.833-2.572,1.523-4.59l5.963-17.034h7.198v28.633
				h-4.44V607.64l-8.268,22.285h-4.258c-2.76-5.896-4.733-14.5-7.493-21.75v21.75H551.044z"/>
		</g>
	</g>
	<path id="path3207" inkscape:connector-curvature="0" sodipodi:nodetypes="ccccccccccc" fill="#222021" d="M0,1050.002V905.142
		h110.281v19.384H22.266v42.96h84.479v19.385H22.266v63.131H0z"/>
	<path id="path3209" inkscape:connector-curvature="0" fill="#222021" d="M171.055,931.733c-37.917,0-50.557,23.331-50.557,48.33
		v23.052c0,30.601,16.59,49.247,49.206,49.247h16.74c28.684,0,52.979-12.963,52.979-50.908v-19.557
		c0-26.458-13.018-50.164-52.129-50.164H171.055z M170.007,949.939h20.694c21.237,0,26.457,12.521,26.457,26.457v30.648
		c0,18.583-8.005,26.982-26.981,26.982h-24.1c-14.682,0-23.575-9.595-23.575-28.029v-28.553
		C142.502,957.589,152.803,949.939,170.007,949.939z"/>
	<path id="path3211" inkscape:connector-curvature="0" sodipodi:nodetypes="ccccccccc" fill="#222021" d="M258.023,1050.002v-85.199
		c0-19.335,6.941-30.584,35.102-30.584h28.553v19.254h-23.576c-14.884,0-18.86,6.968-18.86,16.096l-0.262,80.172L258.023,1050.002z"
		/>
	<path id="path3213" inkscape:connector-curvature="0" sodipodi:nodetypes="cccccccccccccccccccccccc" fill="#222021" d="
		M339.751,1050.002V934.218h21.219v24.623c0.508-10.575,7.559-24.623,27.767-24.623h18.074c23.59,0,29.194,19.157,29.194,19.157
		s1.94-19.157,26.602-19.157h17.813c26.211,0,34.84,17.065,34.84,39.293v76.49h-21.218v-78.063c0-13.915-6.171-18.467-18.544-18.467
		h-18.81c-14.53,0-18.573,7.523-18.573,18.729v77.8h-21.218v-78.324c0-11.269-3.807-18.205-18.729-18.205h-18.599
		c-11.604,0-18.599,4.475-18.599,18.467v78.063H339.751z"/>
	<path id="path3215" inkscape:connector-curvature="0" sodipodi:nodetypes="ccccccccccc" fill="#222021" d="M536.74,934.218v76.49
		c0,22.39,8.836,39.293,35.363,39.293h67.846V934.218h-21.218v96.399h-44.009c-11.497,0-16.765-6.412-16.765-17.623v-78.775H536.74z
		"/>
	<path id="path3217" inkscape:connector-curvature="0" fill="#222021" d="M665.2,905.142h21.218v144.859H665.2V905.142z"/>
	<path id="path3219" inkscape:connector-curvature="0" fill="#222021" d="M708.318,934.221v18.337h75.704l-58.153,36.411
		c-15.689,9.968-22.863,17.331-22.863,32.548c0,21.31,14.521,28.487,33.079,28.487h75.287v-81.082
		c0-7.059-1.291-18.804-8.227-25.524c-6.936-6.721-18.605-9.177-31.05-9.177H708.318L708.318,934.221z M790.309,968.799v61.82
		h-52.914c-7.054,0-12.255-2.902-12.255-11.174c0-8.457,4.698-12.221,11.73-16.854L790.309,968.799L790.309,968.799z"/>
	<path id="path3223" inkscape:connector-curvature="0" sodipodi:nodetypes="ccccccccccccc" fill="#222021" d="M864.703,1050.002
		v-19.385h43.746v-100.59c0-2.457-1.777-5.501-5.502-5.501h-33.791v-19.228h37.982c17.942,0,23.445,11.013,23.445,23.419v101.899
		h38.638v19.385H864.703z"/>
</g>
</svg>
