<?xml version="1.0" encoding="UTF-8"?>
<svg xmlns="http://www.w3.org/2000/svg" xmlns:xlink="http://www.w3.org/1999/xlink" width="581.9pt" height="335.9pt" viewBox="0 0 581.9 335.9" version="1.1">
<defs>
<clipPath id="clip1">
  <path d="M 151 255 L 272 255 L 272 335.898438 L 151 335.898438 Z M 151 255 "/>
</clipPath>
<clipPath id="clip2">
  <path d="M 150 254 L 274 254 L 274 335.898438 L 150 335.898438 Z M 150 254 "/>
</clipPath>
</defs>
<g id="surface1">
<path style="fill-rule:evenodd;fill:rgb(10.594177%,9.812927%,9.423828%);fill-opacity:1;stroke-width:2;stroke-linecap:butt;stroke-linejoin:miter;stroke:rgb(0%,0%,0%);stroke-opacity:1;stroke-miterlimit:4;" d="M 2.304688 1927.90625 L 614.84375 3083.648438 C 684.921875 3221.1875 850.859375 3357.671875 1017.265625 3358.21875 L 2171.367188 3358.21875 L 1414.023438 1927.90625 Z M 2.304688 1927.90625 " transform="matrix(0.1,0,0,-0.1,0,335.9)"/>
<path style="fill-rule:evenodd;fill:rgb(10.594177%,9.812927%,9.423828%);fill-opacity:1;stroke-width:2;stroke-linecap:butt;stroke-linejoin:miter;stroke:rgb(0%,0%,0%);stroke-opacity:1;stroke-miterlimit:4;" d="M 1414.023438 1927.90625 L 2541.5625 1927.90625 L 1946.523438 803.609375 L 817.421875 803.609375 Z M 1414.023438 1927.90625 " transform="matrix(0.1,0,0,-0.1,0,335.9)"/>
<g clip-path="url(#clip1)" clip-rule="nonzero">
<path style=" stroke:none;fill-rule:evenodd;fill:rgb(10.594177%,9.812927%,9.423828%);fill-opacity:1;" d="M 194.652344 255.539063 L 271.957031 255.539063 L 234.742188 325.945313 C 231.972656 330.171875 224.449219 335.492188 218.164063 335.796875 L 151.828125 335.796875 Z M 194.652344 255.539063 "/>
</g>
<g clip-path="url(#clip2)" clip-rule="nonzero">
<path style="fill:none;stroke-width:2;stroke-linecap:butt;stroke-linejoin:miter;stroke:rgb(0%,0%,0%);stroke-opacity:1;stroke-miterlimit:4;" d="M 1946.523438 803.609375 L 2719.570313 803.609375 L 2347.421875 99.546875 C 2319.726563 57.28125 2244.492188 4.078125 2181.640625 1.03125 L 1518.28125 1.03125 Z M 1946.523438 803.609375 " transform="matrix(0.1,0,0,-0.1,0,335.9)"/>
</g>
<path style="fill-rule:evenodd;fill:rgb(10.594177%,9.812927%,9.423828%);fill-opacity:1;stroke-width:2;stroke-linecap:butt;stroke-linejoin:miter;stroke:rgb(0%,0%,0%);stroke-opacity:1;stroke-miterlimit:4;" d="M 2541.5625 1927.90625 L 2935.3125 2676.890625 C 2980.585938 2760.835938 3104.453125 2839.976563 3203.945313 2841.773438 L 3993.359375 2841.773438 L 3582.890625 2064.351563 C 3539.648438 1990.679688 3421.289063 1931.148438 3318.046875 1928.023438 Z M 2541.5625 1927.90625 " transform="matrix(0.1,0,0,-0.1,0,335.9)"/>
<path style="fill-rule:evenodd;fill:rgb(10.594177%,9.812927%,9.423828%);fill-opacity:1;stroke-width:2;stroke-linecap:butt;stroke-linejoin:miter;stroke:rgb(0%,0%,0%);stroke-opacity:1;stroke-miterlimit:4;" d="M 3993.359375 2841.773438 L 4214.375 3255.289063 C 4238.632813 3299.429688 4305.585938 3359.9375 4375.703125 3358.21875 L 4790.507813 3358.21875 L 4564.140625 2936.65625 C 4539.882813 2892.671875 4487.695313 2843.101563 4440 2840.210938 Z M 3993.359375 2841.773438 " transform="matrix(0.1,0,0,-0.1,0,335.9)"/>
<path style="fill-rule:evenodd;fill:rgb(89.0625%,0%,8.616638%);fill-opacity:1;stroke-width:2;stroke-linecap:butt;stroke-linejoin:miter;stroke:rgb(0%,0%,0%);stroke-opacity:1;stroke-miterlimit:4;" d="M 2200.585938 969.9375 L 2324.882813 969.9375 C 2390.976563 969.625 2415.9375 1019.625 2432.695313 1045.875 L 2687.65625 1531.8125 C 2707.148438 1567.828125 2729.414063 1590.09375 2770.820313 1590.40625 C 2789.101563 1590.71875 2807.382813 1570.875 2792.773438 1544.625 L 2490.273438 969.9375 L 2620.039063 969.9375 C 2680.976563 970.210938 2706.25 1017.203125 2720.585938 1047.710938 L 2978.28125 1531.8125 C 2997.460938 1570.5625 3018.476563 1590.09375 3052.304688 1590.40625 C 3073.007813 1590.09375 3089.140625 1569.664063 3076.054688 1545.5625 L 2771.757813 969.9375 L 2901.523438 969.9375 C 2969.140625 969.9375 2994.726563 1018.414063 3011.171875 1046.8125 L 3297.226563 1589.46875 C 3327.382813 1643.101563 3310.585938 1761.929688 3190.273438 1761.539063 L 2809.21875 1761.539063 C 2687.070313 1761.851563 2575.859375 1680.679688 2527.734375 1589.46875 Z M 2200.585938 969.9375 " transform="matrix(0.1,0,0,-0.1,0,335.9)"/>
<path style="fill-rule:evenodd;fill:rgb(89.0625%,0%,8.616638%);fill-opacity:1;stroke-width:2;stroke-linecap:butt;stroke-linejoin:miter;stroke:rgb(0%,0%,0%);stroke-opacity:1;stroke-miterlimit:4;" d="M 3110.546875 1118.257813 L 3364.414063 1591.148438 C 3406.015625 1674.976563 3533.90625 1762.554688 3645.3125 1762.554688 L 3734.179688 1762.554688 C 3836.25 1762.554688 3860.585938 1656.226563 3826.210938 1591.148438 L 3577.070313 1118.257813 C 3534.765625 1035.757813 3409.179688 954.859375 3308.125 954.859375 L 3217.695313 954.078125 C 3110.820313 954.078125 3076.132813 1045.289063 3110.546875 1118.257813 Z M 3352.96875 1118.609375 C 3368.359375 1118.804688 3394.023438 1123.609375 3409.53125 1149.820313 C 3491.40625 1288.296875 3608.320313 1523.414063 3626.523438 1557.710938 C 3635.273438 1574.15625 3621.71875 1589.078125 3596.5625 1589.039063 C 3566.914063 1589.195313 3546.289063 1575.679688 3537.070313 1558.140625 L 3324.570313 1155.484375 C 3312.109375 1133.84375 3328.90625 1119.195313 3352.96875 1118.609375 Z M 3352.96875 1118.609375 " transform="matrix(0.1,0,0,-0.1,0,335.9)"/>
<path style="fill-rule:evenodd;fill:rgb(89.0625%,0%,8.616638%);fill-opacity:1;stroke-width:2;stroke-linecap:butt;stroke-linejoin:miter;stroke:rgb(0%,0%,0%);stroke-opacity:1;stroke-miterlimit:4;" d="M 3984.0625 1118.257813 L 4237.96875 1591.148438 C 4279.570313 1674.976563 4407.421875 1762.554688 4518.828125 1762.554688 L 4607.695313 1762.554688 C 4709.804688 1762.554688 4734.140625 1656.226563 4699.765625 1591.148438 L 4450.625 1118.257813 C 4408.28125 1035.757813 4282.695313 954.859375 4181.679688 954.859375 L 4091.210938 954.078125 C 3984.375 954.078125 3949.6875 1045.289063 3984.0625 1118.257813 Z M 4226.484375 1118.609375 C 4241.914063 1118.804688 4267.539063 1123.609375 4283.046875 1149.820313 C 4364.960938 1288.296875 4481.875 1523.414063 4500.078125 1557.710938 C 4508.828125 1574.15625 4495.234375 1589.078125 4470.117188 1589.039063 C 4440.46875 1589.195313 4419.84375 1575.679688 4410.625 1558.140625 L 4198.125 1155.484375 C 4185.625 1133.84375 4202.460938 1119.195313 4226.484375 1118.609375 Z M 4226.484375 1118.609375 " transform="matrix(0.1,0,0,-0.1,0,335.9)"/>
<path style="fill-rule:evenodd;fill:rgb(89.0625%,0%,8.616638%);fill-opacity:1;stroke-width:2;stroke-linecap:butt;stroke-linejoin:miter;stroke:rgb(0%,0%,0%);stroke-opacity:1;stroke-miterlimit:4;" d="M 4014.140625 1827.984375 C 4041.328125 1881.265625 4102.070313 1897.75 4148.398438 1896.695313 L 4241.09375 1896.695313 L 4154.804688 1736.851563 L 4268.28125 1736.851563 L 4180.351563 1572.242188 L 4070.078125 1572.242188 L 3859.101563 1171.070313 C 3841.015625 1143.882813 3846.875 1119.9375 3871.875 1118.335938 L 3945.429688 1118.335938 L 3855.898438 955.289063 L 3742.421875 955.289063 C 3638.007813 955.289063 3607.109375 1054.390625 3640.15625 1118.335938 Z M 4014.140625 1827.984375 " transform="matrix(0.1,0,0,-0.1,0,335.9)"/>
<path style="fill-rule:evenodd;fill:rgb(89.0625%,0%,8.616638%);fill-opacity:1;stroke-width:2;stroke-linecap:butt;stroke-linejoin:miter;stroke:rgb(0%,0%,0%);stroke-opacity:1;stroke-miterlimit:4;" d="M 5121.445313 1383.726563 L 4980.820313 1118.257813 C 4938.515625 1035.757813 4812.929688 954.859375 4711.914063 954.859375 L 4621.445313 954.078125 C 4514.609375 954.078125 4479.921875 1045.289063 4514.296875 1118.257813 L 4768.203125 1591.148438 C 4809.804688 1674.976563 4937.65625 1762.554688 5049.0625 1762.554688 L 5137.929688 1762.554688 C 5240.039063 1762.554688 5264.375 1656.226563 5229.960938 1591.148438 L 5155.859375 1450.484375 L 4966.40625 1450.875 L 5018.359375 1546.1875 C 5033.242188 1575.953125 5020.859375 1589.898438 4995.898438 1589.039063 C 4964.257813 1589.585938 4943.125 1585.640625 4923.59375 1545.914063 L 4718.984375 1156.695313 C 4698.554688 1119.976563 4730 1117.789063 4747.773438 1116.734375 C 4770.429688 1117.828125 4793.046875 1121.304688 4811.71875 1155.09375 L 4861.25 1247.789063 L 4814.882813 1247.789063 L 4886.835938 1382.046875 Z M 5121.445313 1383.726563 " transform="matrix(0.1,0,0,-0.1,0,335.9)"/>
<path style="fill-rule:evenodd;fill:rgb(89.0625%,0%,8.616638%);fill-opacity:1;stroke-width:2;stroke-linecap:butt;stroke-linejoin:miter;stroke:rgb(0%,0%,0%);stroke-opacity:1;stroke-miterlimit:4;" d="M 4965.039063 970.992188 L 5071.484375 971.382813 C 5158.867188 971.382813 5184.882813 1023.257813 5204.648438 1061.890625 L 5284.53125 1210.601563 L 5375.390625 1210.601563 C 5503.242188 1209.859375 5614.492188 1288.765625 5664.609375 1381.34375 L 5771.992188 1590.679688 C 5819.609375 1675.367188 5759.804688 1762.476563 5667.34375 1762.789063 L 5576.445313 1761.421875 C 5384.257813 1762.164063 5306.875 1620.445313 5290.039063 1590.679688 Z M 5373.984375 1379.585938 C 5465.898438 1379.585938 5482.382813 1411.851563 5503.476563 1451.578125 L 5551.679688 1543.84375 C 5564.765625 1567.242188 5553.75 1590.640625 5528.28125 1590.679688 C 5485.9375 1590.523438 5465.429688 1553.6875 5460.78125 1546.617188 Z M 5373.984375 1379.585938 " transform="matrix(0.1,0,0,-0.1,0,335.9)"/>
</g>
</svg>
